<svg id="about2_tag_bg" xmlns="http://www.w3.org/2000/svg" width="113" height="124" viewBox="0 0 113 124">
  <circle id="Ellipse_348" data-name="Ellipse 348" cx="7" cy="7" r="7" transform="translate(99)" fill="#ae1905"/>
  <circle id="Ellipse_349" data-name="Ellipse 349" cx="12" cy="12" r="12" transform="translate(78 16)" fill="#ae1905"/>
  <path id="Path_67871" data-name="Path 67871" d="M44.261,109.77c-4.269,6.072-11.049.86-16.024-.928a13.941,13.941,0,0,0-5.9-.848,8.145,8.145,0,0,0-4.645,2.039c-.911.817-1.968,2.063-3.317,1.911a3.389,3.389,0,0,1-1.855-5.166c2.962-4.983,9.086-3.453,13.48-1.75,1.817.7,3.651,1.441,5.414,2.276,1.917.911,3.923,2.237,6.078,1.487,1.629-.568,1.909-2.39,2.832-3.6,1.224-1.6,3.542-.72,4.244.958A4.539,4.539,0,0,1,44.261,109.77Z" fill="#ae1905"/>
  <path id="Path_67872" data-name="Path 67872" d="M70.182,36.75c.681.441,1.47.627,2.172,1a5.076,5.076,0,0,1,1.842,2.47A12.067,12.067,0,0,0,75.85,43a12.784,12.784,0,0,0,2.423,2,10.72,10.72,0,0,0,3.58,1.22c1.236.242,2.836.453,3.968-.237a1.681,1.681,0,0,0,.856-1.322,2.2,2.2,0,0,0-.443-1.424c-.927-.831-2.732-1.123-3.948-1.288s-2.427-.33-3.651-.462a4.265,4.265,0,0,1-2.665-1,7.955,7.955,0,0,1-1.533-2.7,7.9,7.9,0,0,0-2.06-2.814c-.6-.487-2.034-1-2.653-.394C68.928,35.331,69.371,36.271,70.182,36.75Z" fill="#fff"/>
  <path id="Path_67873" data-name="Path 67873" d="M82.91,106.182c-.171.44-.677,1.885-.054,2.093.409.135,1.295-.7,1.6-.894a11.653,11.653,0,0,1,2.36-1.25c2.193-.784,4.549-.941,6.713-1.827a9.932,9.932,0,0,0,4.679-3.835c1.888-2.813,1.93-8.229-2.4-8.305-2.2-.038-2.181,2.542-2.54,4.115a11.938,11.938,0,0,1-.823,2.568,6.814,6.814,0,0,1-3.651,3.107c-1.036.474-2.093.9-3.087,1.47a5.787,5.787,0,0,0-2.782,2.746C82.914,106.177,82.91,106.177,82.91,106.182Z" fill="#ae1905"/>
  <path id="Path_67874" data-name="Path 67874" d="M93.032,60.095c-1.675-4.826-6.65-6.924-10.728-9.013-6.028-3.089-10.765-7.517-16.392-11.255-4.979-3.3-10.92-5.644-16.935-4.492-3.776.725-6.391,3.746-9.57,5.716-3.242,2.009-6.5,1.352-10.03,1.081-3.6-.271-4.992,1.525-6.788,4.5-2.565,4.259-6.333,6.708-10.255,9.382C7.3,59.238,7.258,66.434,9.877,71.544c2.16,4.428-2.264,8.369-1.115,13.217a17.51,17.51,0,0,1,.192,7.7c-.338,1.127-1.245,2.716-1.153,4.06.209,4.187,7.239,5.492,10.4,6.335,5.318,1.42,10.535,4.221,15.761,6.038,9.387,3.268,16.062,10.853,25.8,12.971,4.453.971,8.075-1.267,10.677-4.945,2.615-3.7,4.512-7.928,7.386-11.432,2.807-3.424,6.726-5.509,9.641-8.814a14.33,14.33,0,0,0,3.392-7.208c.631-3.5.33-7.081.451-10.619C91.516,72.637,95.179,66.273,93.032,60.095Z" fill="#ae1905"/>
  <path id="Path_67875" data-name="Path 67875" d="M3.673,76.727a1.337,1.337,0,1,1-1.337-1.356A1.345,1.345,0,0,1,3.673,76.727Z" fill="none" stroke="#fff" stroke-miterlimit="10" stroke-width="2"/>
  <path id="Path_67876" data-name="Path 67876" d="M81.373,121.644a1.337,1.337,0,1,1-1.337-1.356A1.345,1.345,0,0,1,81.373,121.644Z" fill="none" stroke="#fff" stroke-miterlimit="10" stroke-width="2"/>
  <path id="Path_67877" data-name="Path 67877" d="M14.6,46.843a2.127,2.127,0,1,1-2.126-2.157A2.142,2.142,0,0,1,14.6,46.843Z" fill="#fff"/>
  <path id="Path_67878" data-name="Path 67878" d="M100,60.535a1.851,1.851,0,1,1-1.851-1.877A1.862,1.862,0,0,1,100,60.535Z" fill="#ae1905"/>
  <path id="Path_67879" data-name="Path 67879" d="M98.187,72.667a.881.881,0,1,1-.881-.894A.888.888,0,0,1,98.187,72.667Z" fill="#fff"/>
  <path id="Path_67880" data-name="Path 67880" d="M39.963,117.69a.882.882,0,1,1-.882-.894A.889.889,0,0,1,39.963,117.69Z" fill="#fff"/>
  <path id="Path_67881" data-name="Path 67881" d="M30.342,34.971A1.354,1.354,0,1,1,28.989,33.6,1.363,1.363,0,0,1,30.342,34.971Z" fill="#ae1905"/>
  <path id="Path_67882" data-name="Path 67882" d="M92.364,111.86a1.994,1.994,0,1,1-1.922-2.089A2.006,2.006,0,0,1,92.364,111.86Z" fill="#fff"/>
</svg>
