<svg xmlns="http://www.w3.org/2000/svg" xmlns:xlink="http://www.w3.org/1999/xlink" width="672" height="488" viewBox="0 0 672 488">
  <defs>
    <clipPath id="clip-Logo_-_balck">
      <rect width="672" height="488"/>
    </clipPath>
  </defs>
  <g id="Logo_-_balck" data-name="Logo - balck" clip-path="url(#clip-Logo_-_balck)">
    <g id="Group_64" data-name="Group 64" transform="translate(-22.626 -126.071)">
      <rect id="Rectangle_22" data-name="Rectangle 22" width="362" height="60" rx="8" transform="translate(118 525)" fill="#ae1905"/>
      <g id="Group_21" data-name="Group 21" transform="translate(-734.053 -720.833)">
        <path id="Path_172" data-name="Path 172" d="M1215.118,930.292a59.834,59.834,0,0,0-5.532-18.488,57.236,57.236,0,0,0-11.506-15.659c-1.209-1.087-2.428-2.175-3.688-3.192s-2.58-1.959-3.934-2.86a50.014,50.014,0,0,0-8.609-4.633,53.3,53.3,0,0,0-9.323-2.923c-.792-.182-1.588-.332-2.387-.458l-1.2-.2-1.2-.138c-.8-.1-1.6-.178-2.4-.221s-1.582-.113-2.484-.123l-1.306-.027-.326-.005-.163,0-.367.012-.265.017-.161.014-.32.029c-.807.083-1.578.175-2.337.281-1.522.207-3,.453-4.474.738q-3.985.8-7.853,1.873-.438-.586-.884-1.155c-1.191-1.527-2.417-2.992-3.695-4.4a89.052,89.052,0,0,0-8.1-7.906,91.1,91.1,0,0,0-8.955-6.777,84.843,84.843,0,0,0-9.67-5.594c-1.646-.861-3.364-1.576-5.049-2.34-1.727-.675-3.423-1.412-5.181-1.984a93.676,93.676,0,0,0-10.6-3.037,100.028,100.028,0,0,0-21.637-2.222c-1.793-.041-3.619.09-5.425.161l-1.355.062c-.628.027-1.019.1-1.505.16-.921.127-1.818.276-2.712.436a95.6,95.6,0,0,0-10.459,2.544,99.1,99.1,0,0,0-19.611,8.272,86.319,86.319,0,0,0-17.074,12.393,79.029,79.029,0,0,0-12.495,15.023c-.508-.166-1.015-.333-1.524-.5-1.791-.609-3.644-1.1-5.482-1.624-.914-.27-1.846-.507-2.788-.725l-2.813-.677c-1.917-.382-3.806-.8-5.781-1.09l-1.47-.228-1.508-.171c-.992-.126-2.033-.206-3.079-.276-.507-.045-1.081-.052-1.625-.074-.276-.009-.539-.021-.861-.017l-.974.009-.336.014-.218.015-.385.029-.771.059c-.514.044-1.024.071-1.542.131a52.371,52.371,0,0,0-18.18,5.172,56.625,56.625,0,0,0-5.51,3.132,58.344,58.344,0,0,0-5.083,3.71c-1.619,1.311-3.126,2.777-4.621,4.242a56.869,56.869,0,0,0-12.883,21.2c-.7,1.95-1.187,3.958-1.687,5.955l-.587,3.03c-.2,1.008-.287,2.034-.43,3.049a57.815,57.815,0,0,0-.159,12.235c.058,1.016.242,2.02.36,3.029l.207,1.508.292,1.494a51.052,51.052,0,0,0,1.419,5.889,58.56,58.56,0,0,0,4.658,11.206,51.573,51.573,0,0,0,7.005,9.909,53.2,53.2,0,0,0,8.921,7.989,52.137,52.137,0,0,0,10.421,5.8,46.182,46.182,0,0,0,11.467,3.038,51.042,51.042,0,0,0,22.7-2.458,60.367,60.367,0,0,0,19.215-10.648,67.106,67.106,0,0,1-10.007,3.911,69.2,69.2,0,0,1-10.272,2.348,48.97,48.97,0,0,1-20.1-.972,41.44,41.44,0,0,1-16.78-9.363,47.757,47.757,0,0,1-6.442-7.1,43.82,43.82,0,0,1-4.7-8.163,49.738,49.738,0,0,1-4.059-18.312,49.037,49.037,0,0,1,.658-9.289c.148-.758.233-1.529.424-2.276l.541-2.246c.453-1.469.868-2.947,1.458-4.36a42.524,42.524,0,0,1,9.8-15.112,39.523,39.523,0,0,1,15-9.456,40.368,40.368,0,0,1,8.7-1.982l2.124-.19.375,0c.127-.006.314,0,.487.007.355.014.68.006,1.07.04.748.045,1.5.092,2.295.187l1.174.12,1.2.167c1.592.181,3.224.505,4.844.777l2.446.521c.816.164,1.633.347,2.449.567,1.634.419,3.271.8,4.9,1.31,1.629.488,3.27.924,4.9,1.479l2.445.792,1.224.4,1.214.443,4.859,1.778c3.2,1.33,6.452,2.534,9.628,3.983,1.591.713,3.209,1.36,4.782,2.129l4.74,2.26c1.6.719,3.158,1.525,4.723,2.326l4.7,2.393c.755.39,1.664.825,2.489,1.235l2.539,1.233,2.541,1.22c.854.394,1.672.845,2.565,1.17l5.258,2.1c.879.34,1.739.715,2.636,1.015l2.715.838a88.339,88.339,0,0,0,22.23,4.318,68.871,68.871,0,0,0,22.392-2.133l2.691-.756c.884-.3,1.759-.622,2.631-.942s1.741-.631,2.583-1.028l2.53-1.127a56.37,56.37,0,0,0,9.3-5.795,66.516,66.516,0,0,1-10.151,3.482c-1.743.357-3.432.834-5.186,1.049l-2.592.408-2.611.239a70.911,70.911,0,0,1-20.573-1.339l-2.513-.5-2.48-.686-2.471-.68c-.41-.116-.823-.217-1.23-.345l-1.212-.439c-1.611-.591-3.226-1.147-4.833-1.71-1.591-.626-3.15-1.365-4.72-2.036l-2.347-1.026c-.772-.367-1.528-.789-2.294-1.175l-4.569-2.358c-.77-.364-1.488-.862-2.23-1.3l-2.207-1.342-4.456-2.677-4.705-2.891c-1.568-.966-3.133-1.939-4.751-2.832l-4.839-2.708c-1.607-.913-3.285-1.714-4.927-2.576-3.273-1.744-6.675-3.282-10.064-4.836-3.45-1.451-6.9-2.92-10.451-4.194-1.215-.477-2.461-.9-3.713-1.3a77.994,77.994,0,0,1,13.683-13.513,83.211,83.211,0,0,1,17.564-10.3,94.063,94.063,0,0,1,19.289-5.995,88.991,88.991,0,0,1,9.908-1.4c.821-.066,1.643-.12,2.444-.151a9.886,9.886,0,0,1,1.083-.006l1.239.068c1.653.1,3.289.137,4.95.341a90.907,90.907,0,0,1,19.332,3.916,82.832,82.832,0,0,1,9.054,3.589c1.483.645,2.893,1.441,4.329,2.165,1.393.812,2.814,1.564,4.155,2.451a72.184,72.184,0,0,1,7.793,5.6,77.426,77.426,0,0,1,7,6.475,74.271,74.271,0,0,1,6.08,7.234c.34.458.663.923.988,1.388-.654.291-1.3.586-1.917.886-5.184,2.418-10.118,5.029-15.052,7.349a84.474,84.474,0,0,1-15.114,5.76,57.682,57.682,0,0,1-16.386,1.656,45.854,45.854,0,0,0,16.976,2.847,61.98,61.98,0,0,0,8.747-.853c2.882-.488,5.729-1.148,8.511-1.884,5.574-1.5,10.924-3.285,16.173-4.884,1.327-.424,2.591-.731,3.872-1.123,1.287-.34,2.568-.694,3.862-.993,2.58-.633,5.19-1.115,7.783-1.595,2.6-.461,5.21-.807,7.8-1.053,1.292-.112,2.584-.243,3.845-.3.631-.037,1.253-.059,1.84-.071h.354c.028,0-.039,0-.054.005l-.082,0c-.037,0-.055,0-.023,0l.1.013.2.024.786.094c.5.044,1.1.14,1.693.231s1.177.186,1.757.308q.875.16,1.733.371c.576.124,1.146.266,1.708.434a38,38,0,0,1,6.525,2.477,41.436,41.436,0,0,1,5.992,3.563c.949.682,1.878,1.4,2.771,2.17s1.72,1.585,2.567,2.387a44.613,44.613,0,0,1,8.12,11.341,47.873,47.873,0,0,1,4.218,13.452,50.305,50.305,0,0,1,.05,14.286,47.565,47.565,0,0,1-4.082,13.762,43.946,43.946,0,0,1-3.626,6.189,41.349,41.349,0,0,1-4.632,5.617,43.432,43.432,0,0,1-11.75,8.73c-1.088.581-2.232,1.032-3.377,1.512-1.167.406-2.335.85-3.546,1.172a40.762,40.762,0,0,1-7.478,1.441,51.9,51.9,0,0,1-7.184.237l-.394-.354-.274.335a63.844,63.844,0,0,1-7.994-.883,77.37,77.37,0,0,1-15.931-4.624,48.628,48.628,0,0,0,6.929,5,61.528,61.528,0,0,0,7.705,3.947c1.713.734,3.477,1.379,5.275,1.946l-.089.127c-.685.967-1.316,1.963-1.974,2.943l-1.88,2.993a118.34,118.34,0,0,0-6.595,12.49c-.632,1.364-1.213,2.753-1.773,4.153-.754-.2-1.387-.347-2.069-.5l-2.128-.472q-2.121-.455-4.231-.848c-2.816-.523-5.628-1.008-8.446-1.414-5.631-.84-11.273-1.466-16.922-1.911a252.041,252.041,0,0,0-33.874-.385c-5.627.348-11.236.853-16.811,1.59-1.394.173-2.782.406-4.172.606s-2.777.413-4.157.674l-4.143.741-4.118.859c-1.374.271-2.738.6-4.1.93s-2.724.644-4.078,1c-2.695.761-5.406,1.434-8.063,2.307-5.356,1.586-10.577,3.574-15.743,5.622,5.341-1.561,10.69-3.046,16.13-4.12,2.7-.616,5.441-1.031,8.157-1.531,1.364-.222,2.736-.4,4.1-.6s2.731-.4,4.106-.538l4.111-.466,4.121-.346c1.371-.129,2.746-.21,4.122-.28s2.747-.169,4.123-.211c5.5-.211,11-.193,16.484-.022a244.478,244.478,0,0,1,32.649,3.417q8.068,1.4,16,3.334c2.641.635,5.258,1.344,7.853,2.08q1.945.556,3.86,1.155l1.9.61c.5.165,1.027.345,1.48.507l-.222.823c-.271,1.16-.49,2.337-.734,3.5l-.355,1.751-.062.452c-1.123-.249-2.246-.494-3.369-.72-2.785-.553-5.568-1.071-8.361-1.509q-8.37-1.359-16.789-2.116a251.215,251.215,0,0,0-33.7-.821c-5.607.274-11.2.7-16.763,1.365-1.392.154-2.778.368-4.165.549s-2.774.376-4.153.618l-4.14.684-4.117.8c-1.374.252-2.738.558-4.1.874s-2.726.606-4.082.94c-2.7.723-5.414,1.359-8.077,2.2-5.367,1.513-10.607,3.428-15.8,5.406,5.316-1.631,10.647-3.188,16.074-4.335,2.693-.654,5.431-1.106,8.144-1.644,1.363-.24,2.733-.439,4.1-.661s2.731-.435,4.1-.594l4.112-.522,4.125-.4c1.372-.148,2.749-.248,4.127-.337s2.751-.207,4.13-.267c5.51-.287,11.025-.344,16.531-.248a245.637,245.637,0,0,1,32.824,2.981q8.129,1.295,16.131,3.129c2.666.6,5.311,1.279,7.938,1.984q1.969.534,3.914,1.112c1.278.378,2.618.8,3.773,1.2l4.652,1.6,1.06-5.267.62-3.081.311-1.536.42-1.522c.286-1.012.54-2.028.846-3.034l1.029-2.993a85.3,85.3,0,0,1,5.2-11.595,107.355,107.355,0,0,1,6.7-10.882l1.876-2.588c.652-.84,1.279-1.7,1.948-2.522s1.326-1.65,2.008-2.444c.336-.408.68-.786,1.02-1.176l.506-.562.461-.494-.142-.128a48.284,48.284,0,0,0,7.721-.258,43.754,43.754,0,0,0,9.139-2.024c.751-.237,1.5-.482,2.226-.788.732-.291,1.469-.58,2.194-.893,1.4-.7,2.864-1.341,4.2-2.163.679-.4,1.378-.776,2.041-1.2l1.963-1.31c.666-.43,1.3-.893,1.909-1.374s1.252-.938,1.84-1.462a53.6,53.6,0,0,0,12.288-14.49,57.389,57.389,0,0,0,6.636-17.866A62.332,62.332,0,0,0,1215.118,930.292Z" fill="#ff9d2d"/>
        <path id="Path_173" data-name="Path 173" d="M1022.655,962.767a77.461,77.461,0,0,0,13.678,9.433,71.916,71.916,0,0,0,32.732,8.774,66.471,66.471,0,0,0,17.209-2.09l4.154-1.224c1.368-.448,2.693-1.022,4.028-1.546.662-.275,1.337-.516,1.985-.819l1.924-.948c1.261-.671,2.556-1.265,3.77-2a64.24,64.24,0,0,0,7-4.74l1.651-1.293a18.58,18.58,0,0,0,1.609-1.332l3.03-2.861,1.472-1.454c.459-.52.925-1.026,1.371-1.556.9-1.052,1.8-2.083,2.655-3.148.878-1.042,1.612-2.229,2.4-3.344.757-1.144,1.509-2.278,2.2-3.458-2.5,1.21-4.786,2.577-7.113,3.833-1.2.587-2.349,1.21-3.508,1.811-.581.3-1.142.617-1.71.924l-1.765.818-3.458,1.662c-1.149.543-2.337.994-3.491,1.491-1.173.462-2.277,1.038-3.471,1.413-1.173.419-2.344.822-3.486,1.271a91.972,91.972,0,0,1-14.054,3.555,88.1,88.1,0,0,1-14.2,1.073,103.191,103.191,0,0,1-28.647-4.881c-4.787-1.456-9.557-3.218-14.357-5.163s-9.587-4.117-14.521-6.476a45.025,45.025,0,0,0,5.02,6.514A69.868,69.868,0,0,0,1022.655,962.767Z" fill="#010f1c"/>
      </g>
      <path id="Path_323" data-name="Path 323" d="M97.361,76.349q0,.777-.159,4.9t-.478,10.727q-.319,6.607-.717,15.235t-.957,18.5q-.558,9.872-1.116,20.6T92.9,167.76q9.087.155,16.819,1.01t13.79,1.788q5.261.933,8.529,1.71t5.261,1.477a10.02,10.02,0,0,1,3.029,1.555,10.728,10.728,0,0,1,1.833,1.943,5.579,5.579,0,0,0,1.833,1.632q1.2.7,2.312,1.4a11.4,11.4,0,0,1,1.913,1.477,2.513,2.513,0,0,1,.8,1.866,3.355,3.355,0,0,1-.877,2.254,4.063,4.063,0,0,1-2.152,1.321,35.224,35.224,0,0,1-6.7.777q-5.261.311-16.1.777-5.9.311-14.189.466t-17.218.466q-.478,9.483-1.036,18.033t-.957,15.468q-.4,6.918-.717,11.737t-.478,7A80.846,80.846,0,0,1,85.8,256.45a80.259,80.259,0,0,1-7.334,17.567,93.824,93.824,0,0,1-13.153,17.956,79.738,79.738,0,0,1-20.566,15.7,8.721,8.721,0,0,1-3.348,1.088q-2.391,0-2.391-1.866,0-1.244,1.754-3.265a79.817,79.817,0,0,0,9.247-11.271,51.921,51.921,0,0,0,5.978-12.515A88.051,88.051,0,0,0,59.5,263.6q1.2-9.25,1.993-22.309.159-3.731.478-10.571.319-5.908.8-15.624t1.275-24.8q-11,.311-16.182,1.01a36.229,36.229,0,0,0-6.3,1.166q-.957.311-1.036,1.01a12.831,12.831,0,0,1-.239,1.4,2.8,2.8,0,0,1-.638,1.244,2.81,2.81,0,0,1-2.073.544,10.784,10.784,0,0,1-2.79-.466,14.231,14.231,0,0,1-3.188-1.321,11.3,11.3,0,0,1-2.631-2.021,3.639,3.639,0,0,1-1.116-2.565q0-2.643,3.348-6.218.8-.777,2.949-2.643a33.085,33.085,0,0,1,6.138-3.964,73.666,73.666,0,0,1,10.044-4.2,88.61,88.61,0,0,1,14.826-3.5L69.3,94.849q.159-2.021.478-4.742a20.386,20.386,0,0,1,1.355-5.286,13.615,13.615,0,0,1,3.188-4.664A11.667,11.667,0,0,1,80.3,77.282a14.845,14.845,0,0,0,5.1-2.1,42.784,42.784,0,0,0,4.065-3.031q1.833-1.555,3.348-2.8a4.562,4.562,0,0,1,2.79-1.244,1.182,1.182,0,0,1,1.036.777,6.19,6.19,0,0,1,.558,2.021,21.477,21.477,0,0,1,.159,2.721ZM191.1,43.858a5.379,5.379,0,0,1-1.355,2.8q-1.036,1.088-2.152,2.176t-2.152,2.176a4.532,4.532,0,0,0-1.2,2.8,8.165,8.165,0,0,1-3.826,5.83,13.653,13.653,0,0,1-7.812,2.254q-3.826,0-12.754-.466t-20.406-.466q-12.754,0-26.225.933T87,64.845A196.008,196.008,0,0,0,63,70.131a93.467,93.467,0,0,0-19.689,8.006A44.811,44.811,0,0,0,29.924,89.1a22.124,22.124,0,0,0-4.942,14.147,47.912,47.912,0,0,0,3.826,19.743A71.249,71.249,0,0,0,37.337,137.6a82.889,82.889,0,0,0,8.529,9.639q3.826,3.576,3.826,4.819,0,1.4-2.073,2.487a13.37,13.37,0,0,1-6.058,1.088,33.8,33.8,0,0,1-16.1-3.809A40.367,40.367,0,0,1,13.1,141.72a46.053,46.053,0,0,1-7.971-14.38,51.1,51.1,0,0,1-2.79-16.79A52.167,52.167,0,0,1,8.8,85.288,73.293,73.293,0,0,1,26.656,63.912a114.536,114.536,0,0,1,26.7-16.323,145.062,145.062,0,0,1,33-10.1,331.656,331.656,0,0,1,38.421-5.052q17.537-1.166,31.407-1.166a183.132,183.132,0,0,1,20.088.855,55.445,55.445,0,0,1,10.921,2.1q3.587,1.244,4.464,2.721a5.411,5.411,0,0,1,.877,2.721,3.607,3.607,0,0,1-.558,1.866A8.007,8.007,0,0,0,191.1,43.858Zm1.594,200.7a9.906,9.906,0,0,0,6.7-2.487,20.472,20.472,0,0,0,4.862-6.529,44.627,44.627,0,0,0,3.268-9.405,91.676,91.676,0,0,0,1.913-11.115,47.414,47.414,0,0,1-9.007-8.084,54.573,54.573,0,0,1-7.892-12.126,37.131,37.131,0,0,1-3.029-8.628,40.162,40.162,0,0,1-.957-8.473,31.6,31.6,0,0,1,1.435-9.639,22.139,22.139,0,0,1,4.225-7.773,20.335,20.335,0,0,1,6.935-5.208,22.3,22.3,0,0,1,9.565-1.943q6.855,0,11.239,3.187a22.957,22.957,0,0,1,6.935,8.084,37.164,37.164,0,0,1,3.587,10.649,60.716,60.716,0,0,1,1.036,10.727,105.113,105.113,0,0,1-.877,13.37A101.224,101.224,0,0,1,229.843,213a24.215,24.215,0,0,0,10.522-3.187q4.623-2.721,7.812-9.25,1.913-3.887,3.986-3.887a3.36,3.36,0,0,1,1.993.622,2.3,2.3,0,0,1,.877,2.021,5.371,5.371,0,0,1-.478,2.176,28.506,28.506,0,0,1-27.1,19.122A86.955,86.955,0,0,1,220.835,235a54.712,54.712,0,0,1-9.167,11.893,40.284,40.284,0,0,1-11.957,8.084,36.338,36.338,0,0,1-14.826,2.954,43.962,43.962,0,0,1-9.725-1.244,24.5,24.5,0,0,1-10.2-5.208,30.583,30.583,0,0,1-8.051-11.193q-3.268-7.229-3.268-19.2a63.544,63.544,0,0,1,3.746-20.676A70.877,70.877,0,0,1,169.9,178.8a26.593,26.593,0,0,1,6.138-5.752,9.451,9.451,0,0,1,4.544-1.71q3.507,0,3.507,4.2a11.81,11.81,0,0,1-1.275,4.664,72.111,72.111,0,0,0-2.71,7.151,100.068,100.068,0,0,0-2.71,10.338,68.211,68.211,0,0,0-1.275,14.069q0,15.546,4.544,24.174T192.7,244.557Zm17.7-45.705q0-15.857-3.029-22.775t-6.7-5.519a3.05,3.05,0,0,0-1.833,2.8,38.454,38.454,0,0,0-.239,4.2,28.788,28.788,0,0,0,.957,7.151,58.386,58.386,0,0,0,2.471,7.462,42.7,42.7,0,0,0,3.667,7.073,56.6,56.6,0,0,0,4.544,6.141q.159-1.71.159-3.265Zm72.7,45.705a9.906,9.906,0,0,0,6.7-2.487,20.473,20.473,0,0,0,4.862-6.529,44.629,44.629,0,0,0,3.268-9.405,91.667,91.667,0,0,0,1.913-11.115,47.415,47.415,0,0,1-9.007-8.084,54.572,54.572,0,0,1-7.892-12.126,37.132,37.132,0,0,1-3.029-8.628,40.163,40.163,0,0,1-.957-8.473,31.6,31.6,0,0,1,1.435-9.639,22.14,22.14,0,0,1,4.225-7.773,20.335,20.335,0,0,1,6.935-5.208,22.3,22.3,0,0,1,9.565-1.943q6.855,0,11.239,3.187a22.957,22.957,0,0,1,6.935,8.084,37.165,37.165,0,0,1,3.587,10.649,60.715,60.715,0,0,1,1.036,10.727,105.119,105.119,0,0,1-.877,13.37A101.217,101.217,0,0,1,320.236,213a24.215,24.215,0,0,0,10.522-3.187q4.623-2.721,7.812-9.25,1.913-3.887,3.986-3.887a3.36,3.36,0,0,1,1.993.622,2.3,2.3,0,0,1,.877,2.021,5.371,5.371,0,0,1-.478,2.176,28.506,28.506,0,0,1-27.1,19.122A86.955,86.955,0,0,1,311.229,235a54.713,54.713,0,0,1-9.167,11.893,40.284,40.284,0,0,1-11.957,8.084,36.338,36.338,0,0,1-14.826,2.954,43.962,43.962,0,0,1-9.725-1.244,24.5,24.5,0,0,1-10.2-5.208,30.583,30.583,0,0,1-8.051-11.193q-3.268-7.229-3.268-19.2a63.544,63.544,0,0,1,3.746-20.676A70.877,70.877,0,0,1,260.293,178.8a26.594,26.594,0,0,1,6.138-5.752,9.451,9.451,0,0,1,4.544-1.71q3.507,0,3.507,4.2a11.809,11.809,0,0,1-1.275,4.664,72.111,72.111,0,0,0-2.71,7.151,100.077,100.077,0,0,0-2.71,10.338,68.21,68.21,0,0,0-1.275,14.069q0,15.546,4.544,24.174T283.09,244.557Zm17.7-45.705q0-15.857-3.029-22.775t-6.7-5.519a3.05,3.05,0,0,0-1.833,2.8,38.454,38.454,0,0,0-.239,4.2,28.788,28.788,0,0,0,.957,7.151,58.382,58.382,0,0,0,2.471,7.462,42.7,42.7,0,0,0,3.667,7.073,56.605,56.605,0,0,0,4.544,6.141q.159-1.71.159-3.265ZM441.4,196.675a2.477,2.477,0,0,1,1.674.622,2.544,2.544,0,0,1,.717,2.021,8.856,8.856,0,0,1-.478,2.176q-4.145,12.126-7.971,21.764t-7.493,16.79a49.8,49.8,0,0,1-9.247,13.059q-5.1,4.975-13.551,4.975a19.562,19.562,0,0,1-6.616-1.166,14.648,14.648,0,0,1-5.978-4.2,29.919,29.919,0,0,1-4.942-8.317,53.7,53.7,0,0,1-3.348-13.37q-2.551,4.975-5.66,9.949a51.373,51.373,0,0,1-6.935,8.861,33.638,33.638,0,0,1-8.449,6.3,21.74,21.74,0,0,1-10.2,2.41,13.035,13.035,0,0,1-7.732-2.565,22.133,22.133,0,0,1-6.218-7.151,41.045,41.045,0,0,1-4.145-10.96,61.254,61.254,0,0,1-1.515-14.147,85.974,85.974,0,0,1,1.515-16.168,92.569,92.569,0,0,1,4.225-15.157,71.764,71.764,0,0,1,6.616-13.37,59.037,59.037,0,0,1,8.529-10.649,61.078,61.078,0,0,1,15.464-11.426q7.493-3.653,13.232-3.653h1.275a9.828,9.828,0,0,1,1.435.155q.638-7.618,1.275-16.09t1.913-18.111q1.594-12.126,2.87-20.521t2.471-14.38a98.007,98.007,0,0,1,2.551-10.26,51.848,51.848,0,0,1,3.268-8.006A17.157,17.157,0,0,1,402.42,62.2a24.093,24.093,0,0,1,2.87-2.8q1.515-1.244,3.348-2.721T412.7,53.03a37.9,37.9,0,0,1,6.776-5.519,9.664,9.664,0,0,1,4.384-1.632,4.939,4.939,0,0,1,2.949.855q1.2.855,1.2,3.342a10.219,10.219,0,0,1-.159,1.71,18.047,18.047,0,0,1-.478,2.021q-.638,2.176-2.073,8.084t-3.188,14.38q-1.754,8.473-3.667,19.122t-3.507,22q-1.754,13.059-3.109,26.04t-2.232,25.029q-.877,12.048-1.355,22.619t-.478,18.811q0,5.441.4,10.027a44.175,44.175,0,0,0,1.355,8.006,13.118,13.118,0,0,0,2.631,5.286,5.263,5.263,0,0,0,4.065,1.866,7.086,7.086,0,0,0,5.022-2.254,27.936,27.936,0,0,0,4.7-6.685q2.391-4.431,5.1-10.882t6.058-14.691Q438.529,196.675,441.4,196.675Zm-57.233-24.252q0-6.685-5.9-6.685a14.377,14.377,0,0,0-8.768,3.109,27.961,27.961,0,0,0-7.333,8.706,52.126,52.126,0,0,0-5.1,13.37,71.529,71.529,0,0,0-1.913,17.1q0,10.1,3.268,16.712t10.123,6.607a10.111,10.111,0,0,0,6.536-2.176,16.156,16.156,0,0,0,4.384-5.6,32.884,32.884,0,0,0,2.551-7.384,59.449,59.449,0,0,0,1.2-7.54q0-5.286.08-10.494t.239-10.027q.159-4.819.319-8.861T384.166,172.423Zm95.177-79.129a4.364,4.364,0,0,1,.478,2.021q0,2.954-3.826,6.218-3.189,2.8-5.9,5.441t-4.942,4.742a38.634,38.634,0,0,1-3.986,3.342,5.464,5.464,0,0,1-2.87,1.244,3.768,3.768,0,0,1-1.514-.311,3.2,3.2,0,0,1-1.355-1.4q-1.913-3.576-3.826-7.462t-3.428-7.307q-1.515-3.42-2.471-5.985a12.583,12.583,0,0,1-.957-3.5,6.22,6.22,0,0,1,1.594-3.731q.638-.933,2.949-3.576t4.942-5.6q2.63-2.954,4.942-5.441t3.109-3.265q1.913-2.176,3.188-2.176,1.435,0,2.232,2.021.478,1.088,2.152,4.664t3.587,7.7q1.913,4.12,3.667,7.7T479.342,93.294Zm21.2,103.381a2.323,2.323,0,0,1,1.674.7,2.589,2.589,0,0,1,.717,1.943,5.371,5.371,0,0,1-.478,2.176q-3.667,10.26-6.776,18.655t-6.3,14.924a75.522,75.522,0,0,1-8.848,15,20.431,20.431,0,0,1-9.486,6.918q-1.275.311-2.87.622a17.463,17.463,0,0,1-3.348.311,26.413,26.413,0,0,1-8.529-1.555,20.268,20.268,0,0,1-8.45-5.908q-3.906-4.353-6.457-12.2t-2.551-20.443q0-11.193.8-21.531t2.391-20.909a41.71,41.71,0,0,1,5.819-8.784,57.142,57.142,0,0,1,6.935-6.84,39.482,39.482,0,0,1,6.457-4.431,10.918,10.918,0,0,1,4.384-1.555q.638,0,.638,1.4a38.175,38.175,0,0,1-.4,4.275q-.4,3.031-.877,8.473t-1.036,13.914q-.558,8.473-.877,20.6a88.146,88.146,0,0,0,.877,12.9,48.618,48.618,0,0,0,2.551,10.26,19.337,19.337,0,0,0,4.065,6.762,7.288,7.288,0,0,0,5.261,2.41,6.965,6.965,0,0,0,5.1-2.565,32.77,32.77,0,0,0,4.783-7.151q2.391-4.586,4.942-10.882t5.42-13.6Q497.676,196.675,500.546,196.675Zm65.045,4.819a224.289,224.289,0,0,1-11.877,27.283q-5.978,11.271-12.037,17.334a37.781,37.781,0,0,1,4.544,11.582,110.4,110.4,0,0,1,2.391,13.914q.717,6.84.877,12.048t.159,5.985a175.943,175.943,0,0,1-1.913,25.884,85.3,85.3,0,0,1-4.862,18.422,46.4,46.4,0,0,1-7.334,12.592,45.4,45.4,0,0,1-9.326,8.395,47.967,47.967,0,0,1-7.094,3.964,17.269,17.269,0,0,1-7.094,1.788,15.881,15.881,0,0,1-7.971-2.41,25,25,0,0,1-7.573-7.151,41.582,41.582,0,0,1-5.66-11.66,51.339,51.339,0,0,1-2.232-15.779q.159-8.395.8-20.288t1.674-26.04q1.036-14.147,2.471-29.771t2.949-31.325q1.515-15.7,3.109-30.781t3.109-28.061q1.515-12.981,2.87-23.164t2.312-16.246q2.71-15.857,5.341-26.2a126.531,126.531,0,0,1,5.341-16.867,40.9,40.9,0,0,1,5.42-9.872,23.789,23.789,0,0,1,5.5-5.13,26.615,26.615,0,0,1,5.739-2.8,35.777,35.777,0,0,0,5.978-2.721,71.116,71.116,0,0,1,7.892-4.12,16.054,16.054,0,0,1,6.3-1.477,10.574,10.574,0,0,1,4.225.933,8.944,8.944,0,0,1,3.826,3.5,22.106,22.106,0,0,1,2.71,6.918,49.7,49.7,0,0,1,1.036,11.193,158.892,158.892,0,0,1-1.833,22.464,252.88,252.88,0,0,1-5.181,25.884q-3.507,13.681-8.529,27.594t-10.6,26.972q-5.58,13.059-11.319,24.718T519.2,219.839q-1.594,17.567-3.029,37.077t-2.71,41.275q-.319,6.529-.717,12.825t-.4,11.893a62.858,62.858,0,0,0,1.435,14.691q1.435,5.83,5.58,5.83t6.855-4.275a37.412,37.412,0,0,0,4.384-11.271,98.919,98.919,0,0,0,2.312-15.779q.638-8.783.638-17.645,0-10.1-.8-19.9a87.382,87.382,0,0,0-3.029-17.412,14.557,14.557,0,0,0-1.2-3.031q-.717-1.321-1.514-2.565a7.633,7.633,0,0,1-1.594-2.332,6.387,6.387,0,0,1-.638-2.643,6.594,6.594,0,0,1,1.515-4.12,5.591,5.591,0,0,1,4.7-1.943,22.518,22.518,0,0,0,4.3-2.021,28.332,28.332,0,0,0,5.261-4.2q3.986-3.886,8.689-12.592t10.124-21.143a6.231,6.231,0,0,1,1.993-2.876,5.276,5.276,0,0,1,2.312-1.011q2.232,0,2.232,2.643v1.01A2.571,2.571,0,0,1,565.591,201.495Zm-34.276-88.612q-1.275,10.1-3.906,30.392t-5.66,49.67q6.536-15.235,12.913-33.968a297.959,297.959,0,0,0,10.363-39.254q3.348-17.722,4.7-28.838a154,154,0,0,0,1.355-17.645,45.87,45.87,0,0,0-.4-6.763,17.167,17.167,0,0,0-1.036-4.042,4.013,4.013,0,0,0-1.435-1.943,2.909,2.909,0,0,0-1.435-.466q-1.594,0-3.188,2.8a45.259,45.259,0,0,0-3.189,7.384q-1.594,4.586-3.029,10.338t-2.63,11.582q-1.2,5.83-2.072,11.349T531.315,112.882Zm139.018,87.68q-3.189,9.172-6.776,17.489a131.8,131.8,0,0,1-8.131,15.857,108.9,108.9,0,0,1-10.442,14.458,114.148,114.148,0,0,1-13.711,13.447q-.478,7.462-1.275,15.08t-1.754,14.924q-2.551,18.966-6.536,30.859a91.348,91.348,0,0,1-8.449,19.044q-4.464,7.151-9.008,10.571a51.133,51.133,0,0,1-8.051,5.13q-7.971,3.887-13.392,3.887-7.334,0-11.319-7.151t-3.986-18.5a55.546,55.546,0,0,1,3.667-20.21,85.238,85.238,0,0,1,9.486-17.878,112.473,112.473,0,0,1,13.073-15.624q7.254-7.229,14.587-13.292.478-5.907.717-11.038t.558-8.706q.478-9.172.638-19.355t.478-18.888a196.854,196.854,0,0,1-7.333,22.7,72.052,72.052,0,0,1-7.413,14.3,24.123,24.123,0,0,1-7.732,7.462,17.371,17.371,0,0,1-8.45,2.176,13.83,13.83,0,0,1-6.536-1.788q-3.348-1.788-6.138-6.685t-4.544-13.68a119.186,119.186,0,0,1-1.754-22.619q0-5.6.4-11.426t1.2-11.349q.8-5.519,1.754-10.416a65.944,65.944,0,0,1,2.232-8.628,7.821,7.821,0,0,1,1.594-2.876q.957-1.01,1.594-1.788.8-.933,1.355-1.632a1.68,1.68,0,0,1,1.355-.7,1.831,1.831,0,0,1,1.754.855,1.831,1.831,0,0,0,1.754.855,4.727,4.727,0,0,0,1.754-.7q1.276-.7,2.71-1.632a26.9,26.9,0,0,1,2.87-1.632,5.748,5.748,0,0,1,2.391-.7q1.754,0,1.754,2.8a14.949,14.949,0,0,1-.239,2.487l-.558,3.265a89.773,89.773,0,0,0-1.993,15q-.4,7.851-.4,18.111,0,7,.08,12.825a74.68,74.68,0,0,0,.717,10.027,18.839,18.839,0,0,0,1.993,6.529,4.163,4.163,0,0,0,3.746,2.332q2.87,0,5.341-4.042a55.763,55.763,0,0,0,4.7-10.338q2.232-6.3,4.3-14.069t4.145-15.313q2.073-7.54,4.065-13.991a47.681,47.681,0,0,1,4.225-10.183,16.946,16.946,0,0,1,12.116-6.84,8.29,8.29,0,0,1,2.71.389,3.869,3.869,0,0,1,1.913,1.555,8.885,8.885,0,0,1,1.2,3.42,35.825,35.825,0,0,1,.4,5.985q0,6.374-.239,13.914t-.558,14.613q-.319,7.073-.638,12.67t-.478,8.084q-.319,3.576-.717,11.737t-1.036,18.733a79.766,79.766,0,0,0,10.442-10.183,85.841,85.841,0,0,0,8.21-11.5,134.005,134.005,0,0,0,6.855-13.136q3.189-7,6.218-15.08,1.754-4.2,4.783-4.2a1.949,1.949,0,0,1,2.232,2.176,4.462,4.462,0,0,1-.159,1.088A4.744,4.744,0,0,1,670.333,200.562Zm-65.364,95.453q.478-2.8.957-5.752t.8-6.063a98.2,98.2,0,0,0-8.21,10.882,68.051,68.051,0,0,0-6.377,12.515,84.294,84.294,0,0,0-4.145,14.613,90.824,90.824,0,0,0-1.515,17.178q0,5.286.877,7.462t1.833,2.176q1.594,0,3.348-2.954a38.236,38.236,0,0,0,3.268-7.618q1.515-4.664,2.949-10.494t2.63-11.737q1.2-5.907,2.152-11.271T604.969,296.014Z" transform="translate(22.283 250.355)" fill="#010f1c"/>
      <text id="Fast_Food_Restaurent" data-name="Fast Food &amp; Restaurent" transform="translate(132 564)" fill="#fff" font-size="26" font-family="Roboto-Medium, Roboto" font-weight="500" letter-spacing="0.02em"><tspan x="0" y="0">FAST FOOD &amp; RESTAURENT</tspan></text>
    </g>
  </g>
</svg>
