<svg id="our_feature_bg" xmlns="http://www.w3.org/2000/svg" width="79" height="71" viewBox="0 0 79 71">
  <path id="Path_117975" data-name="Path 117975" d="M35.084,59.71c-3.364,4.723-8.705.669-12.625-.722a11.105,11.105,0,0,0-4.647-.659,6.456,6.456,0,0,0-3.66,1.585c-.718.636-1.55,1.605-2.613,1.486a2.625,2.625,0,0,1-1.461-4.018c2.333-3.876,7.159-2.686,10.621-1.361,1.432.547,2.877,1.121,4.266,1.77,1.511.709,3.09,1.74,4.789,1.157,1.284-.442,1.5-1.859,2.232-2.8.964-1.243,2.791-.56,3.344.745A3.49,3.49,0,0,1,35.084,59.71Z" fill="#ae1905"/>
  <path id="Path_117976" data-name="Path 117976" d="M55.507,2.917c.536.343,1.158.488,1.711.781A3.953,3.953,0,0,1,58.67,5.619a9.364,9.364,0,0,0,1.3,2.155,10.044,10.044,0,0,0,1.909,1.552,8.52,8.52,0,0,0,2.821.949,4.624,4.624,0,0,0,3.127-.185A1.306,1.306,0,0,0,68.5,9.064a1.7,1.7,0,0,0-.349-1.107,6.436,6.436,0,0,0-3.11-1c-.954-.129-1.912-.257-2.876-.359a3.386,3.386,0,0,1-2.1-.778,6.166,6.166,0,0,1-1.208-2.1,6.15,6.15,0,0,0-1.623-2.188c-.474-.379-1.6-.778-2.09-.307C54.519,1.813,54.868,2.544,55.507,2.917Z" fill="#fff"/>
  <path id="Path_117977" data-name="Path 117977" d="M65.535,56.919c-.135.343-.533,1.467-.043,1.628.323.105,1.02-.544,1.257-.7a9.254,9.254,0,0,1,1.859-.972c1.728-.61,3.584-.732,5.289-1.421a7.8,7.8,0,0,0,3.686-2.983c1.488-2.188,1.521-6.4-1.893-6.46-1.734-.03-1.718,1.977-2,3.2a9.2,9.2,0,0,1-.648,2,5.35,5.35,0,0,1-2.877,2.416c-.816.369-1.649.7-2.432,1.144a4.529,4.529,0,0,0-2.192,2.136C65.539,56.916,65.535,56.916,65.535,56.919Z" fill="#ae1905"/>
  <path id="Path_117978" data-name="Path 117978" d="M73.51,21.073c-1.32-3.754-5.24-5.385-8.452-7.01-4.749-2.4-8.482-5.847-12.915-8.754C48.22,2.742,43.54.919,38.8,1.816c-2.975.564-5.036,2.914-7.54,4.446-2.554,1.562-5.118,1.051-7.9.84-2.837-.211-3.933,1.186-5.348,3.5-2.021,3.312-4.99,5.217-8.08,7.3-3.966,2.5-4,8.1-1.935,12.076,1.7,3.444-1.784,6.509-.879,10.28a13.449,13.449,0,0,1,.151,5.992c-.267.877-.981,2.113-.908,3.157.165,3.256,5.7,4.271,8.2,4.927,4.19,1.1,8.3,3.283,12.418,4.7,7.4,2.541,12.655,8.441,20.324,10.089,3.508.755,6.362-.985,8.412-3.846,2.06-2.881,3.555-6.166,5.819-8.892,2.212-2.663,5.3-4.285,7.6-6.855A11.085,11.085,0,0,0,71.8,43.92c.5-2.722.26-5.507.355-8.259C72.315,30.829,75.2,25.879,73.51,21.073Z" fill="#ae1905"/>
  <path id="Path_117979" data-name="Path 117979" d="M3.106,34.01a1.053,1.053,0,1,1-1.053-1.055A1.053,1.053,0,0,1,3.106,34.01Z" fill="none" stroke="#fff" stroke-miterlimit="10" stroke-width="2"/>
  <path id="Path_117980" data-name="Path 117980" d="M64.324,68.946a1.053,1.053,0,1,1-1.053-1.055A1.053,1.053,0,0,1,64.324,68.946Z" fill="none" stroke="#fff" stroke-miterlimit="10" stroke-width="2"/>
  <path id="Path_117981" data-name="Path 117981" d="M11.713,10.767a1.675,1.675,0,1,1-1.675-1.678A1.677,1.677,0,0,1,11.713,10.767Z" fill="#fff"/>
  <path id="Path_117982" data-name="Path 117982" d="M79,21.416a1.458,1.458,0,1,1-1.458-1.46A1.458,1.458,0,0,1,79,21.416Z" fill="#ae1905"/>
  <path id="Path_117983" data-name="Path 117983" d="M77.572,30.852a.695.695,0,1,1-.695-.7A.7.7,0,0,1,77.572,30.852Z" fill="#fff"/>
  <path id="Path_117984" data-name="Path 117984" d="M31.7,65.87a.694.694,0,1,1-.694-.7A.7.7,0,0,1,31.7,65.87Z" fill="#fff"/>
  <path id="Path_117985" data-name="Path 117985" d="M24.118,1.532A1.066,1.066,0,1,1,23.052.465,1.067,1.067,0,0,1,24.118,1.532Z" fill="#ae1905"/>
  <path id="Path_117986" data-name="Path 117986" d="M72.984,61.335a1.571,1.571,0,1,1-1.514-1.625A1.572,1.572,0,0,1,72.984,61.335Z" fill="#fff"/>
  <path id="Path_117987" data-name="Path 117987" d="M69.673,1.107A1.106,1.106,0,1,1,68.567,0,1.107,1.107,0,0,1,69.673,1.107Z" fill="#ae1905"/>
</svg>
